<svg width="23" height="23" viewBox="0 0 23 23" fill="none" xmlns="http://www.w3.org/2000/svg">
<path d="M12 0.990886C11.9949 0.438624 11.5431 -0.00499215 10.9909 4.14848e-05C10.4386 0.00507512 9.99501 0.456852 10 1.00911L12 0.990886ZM10.4498 18.2135C10.8438 18.6005 11.477 18.5947 11.8639 18.2006L18.1696 11.7789C18.5566 11.3849 18.5508 10.7517 18.1567 10.3648C17.7627 9.97783 17.1295 9.9836 16.7426 10.3777L11.1375 16.0858L5.42932 10.4808C5.03526 10.0938 4.40212 10.0996 4.01517 10.4937C3.62822 10.8877 3.63399 11.5209 4.02806 11.9078L10.4498 18.2135ZM10 1.00911L10.1504 17.5091L12.1503 17.4909L12 0.990886L10 1.00911Z" fill="white"/>
<path d="M1 21.2998H22" stroke="white" stroke-width="2" stroke-linecap="round"/>
</svg>
